<svg xmlns="http://www.w3.org/2000/svg" viewBox="0 0 159 90" width="152" height="86">
  <style>
    path{fill:#E2001A;}
  </style>
  <path d="M93.3 80.9c0 1.6.9 2.7 2.6 3.5 1.3.7 2.9 1.2 2.9 2.3 0 .9-.8 1.2-1.6 1.2-1 0-1.6-.4-2.1-1.1l-2 1.2c.5.7 1.7 2 4.1 2 1.8 0 4.2-.9 4.2-3.4 0-2.2-1.9-3.2-3.9-4.1-1-.5-1.8-.8-1.8-1.7 0-.6.6-1.1 1.4-1.1 1 0 1.6.5 2.1 1.2l1.9-1.2c-.4-.7-1.8-2-4-2-2.1 0-3.8 1.2-3.8 3.2"/>
  <path d="M86.5 77.8H89v12h-2.5z"/>
  <path d="M80.6 84.8c.9-.5 1.5-1.5 1.5-3.2 0-2.9-1.7-3.7-4-3.7h-5.3v11.9h2.5v-4.5H78l1.5 4.5h2.8l-1.7-5zM78 83.2h-2.6V80H78c1.1 0 1.5.5 1.5 1.6.1 1.1-.4 1.6-1.5 1.6z"/>
  <path d="M62 77.8l-4.4 12h2.6l.8-2.3h5l.8 2.3h2.6l-4.4-12h-3zm1.4 2.6l1.7 4.8h-3.4l1.7-4.8z"/>
  <path d="M52.2 77.9h-5.3v11.9h2.5v-4.5h2.7c2.3 0 3.9-.9 3.9-3.7.2-2.9-1.5-3.7-3.8-3.7m-.1 5.3h-2.6V80h2.6c1 0 1.5.5 1.5 1.6s-.5 1.6-1.5 1.6"/>
  <path d="M151.3 56.6v12h7.7v-2.3h-5.1v-2.7h4.2v-2.3l-4.2.1v-2.5h5.1v-2.3h-7.7z"/>
  <path d="M137 56.6v12h2.5v-8.5l.1.7 4.1 7.8h2.8v-12H144v8.5l-.1-.7-4.1-7.8H137z"/>
  <path d="M125.4 56.6h-2.8v12h2.5v-8.5l.1.7 4.1 7.8h2.8v-12h-2.5l.1 8.5-.2-.7-4.1-7.8z"/>
  <path d="M118.1 58.9v-2.3h-7.6v12h7.7v-2.3h-5.1v-2.7h4.2v-2.3l-4.2.1v-2.5h5z"/>
  <path d="M103.2 56.6h2.5v11.9h-2.5z"/>
  <path d="M93.5 68.6h2.6v-9.7h3.4v-2.3h-9.4v2.3h3.4v9.7z"/>
  <path d="M84.3 61.3c-1-.5-1.8-.8-1.8-1.7 0-.6.6-1.1 1.4-1.1 1 0 1.6.5 2.1 1.2l1.9-1.2c-.4-.7-1.8-2-4-2-2.1 0-3.9 1.3-3.9 3.2 0 1.6.9 2.7 2.5 3.5 1.3.7 3 1.2 3 2.3 0 .9-.8 1.2-1.6 1.2-1 0-1.6-.4-2.1-1.1l-1.9 1.2c.5.7 1.7 2 4 2 1.8 0 4.2-.9 4.2-3.4.1-2.3-1.8-3.2-3.8-4.1"/>
  <path d="M71.1 63.6h4.2v-2.3l-4.2.1v-2.5h5v-2.3h-7.6v12h7.7v-2.3h-5.1v-2.7z"/>
  <path d="M147.8 37.9v-2.3h-7.7v11.9h7.7v-2.2h-5.1v-2.7h4.2v-2.3h-4.2v-2.5l5.1.1z"/>
  <path d="M128.8 35.6v11.9h7.4v-2.1h-4.9l.1-9.8h-2.6z"/>
  <path d="M119.2 35.4c-3.5 0-5.2 2.7-5.2 6.1 0 3.4 1.7 6.2 5.2 6.2s5.2-2.7 5.2-6.2c0-3.3-1.7-6.1-5.2-6.1m0 10.3c-1.9 0-2.5-1.7-2.5-4.1 0-2.4.5-4.1 2.5-4.1 1.9 0 2.5 1.7 2.5 4.1 0 2.4-.5 4.1-2.5 4.1"/>
  <path d="M106.7 47.7c2.8 0 3.8-1.7 4-2l-1.9-1.2c-.3.3-.8 1.2-2.1 1.2-1.9 0-2.5-1.7-2.5-4.1 0-2.4.6-4.1 2.5-4.1 1.4 0 1.9.9 2.1 1.2l1.9-1.2c-.3-.4-1.4-2-4-2-3.5 0-5.2 2.7-5.2 6.1 0 3.4 1.7 6.1 5.2 6.1"/>
  <path d="M92.4 45.2v-2.7l4.2.1v-2.3h-4.2v-2.5l5.1.1v-2.3h-3.1l2.9-3.1h-3l-2.7 3.1h-1.7v11.9h7.6v-2.3h-5.1z"/>
  <path d="M22.4 88.7l1.3 1.3 64.2-64.2-1.2-1.3-64.3 64.2z"/>
  <path d="M30.3.1C32-.1 33 0 34.8.1c1.1.1 1.8.2 2.7.4C46 2.6 51.5 7.9 54 16.2c1.2 3.8 1.3 7.8 1.2 11.7 0 .9-.1 1.8-.1 2.7H23.3c0 .4-.1 1.4.1 1.9 1 3 2.5 5.4 5.3 6.7 4.5 2.2 9 1.5 13.4-.7 1.8-.9 3.4-2.2 5-3.6 3 2.8 6.2 5.3 9.1 8.2-3.2 3-6.7 5.3-10.7 6.6-6.8 2.2-13.6 2.1-20.4.3-3.2-.9-6.1-2.5-8.5-4.8-3.5-3.4-5.5-7.5-6.5-12.2l-.3-2s-5.8.1-9.8.1V20.3c3.2 0 6.9-.1 10-.1.1-1.1.2-1.8.4-2.6C12.7 8.9 17.9 3 26.7.8c1.2-.2 2.4-.4 3.6-.7zm11.3 20.2c.3-5.5-3.9-9.9-9.1-9.7-5.1.1-9.6 4.9-9 9.7h18.1z"/>
</svg>
